<svg xmlns="http://www.w3.org/2000/svg" viewBox="0 0 400 300" width="400" height="300">
  <rect width="400" height="300" fill="#f5f5f5"/>
  <path d="M120,150 C120,100 160,60 200,60 C240,60 280,100 280,150 L280,220 C280,230 270,240 260,240 L240,240 C230,240 220,230 220,220 L220,180 L180,180 L180,220 C180,230 170,240 160,240 L140,240 C130,240 120,230 120,220 L120,150 Z" fill="#222"/>
  <path d="M120,150 L120,180 C110,180 100,170 100,160 L100,170 C100,180 110,190 120,190 L120,220 C120,230 130,240 140,240 L160,240 C170,240 180,230 180,220 L180,180" fill="#444"/>
  <path d="M280,150 L280,180 C290,180 300,170 300,160 L300,170 C300,180 290,190 280,190 L280,220 C280,230 270,240 260,240 L240,240 C230,240 220,230 220,220 L220,180" fill="#444"/>
  <text x="200" y="140" font-family="Arial" font-size="16" fill="white" text-anchor="middle">Sony Headphones</text>
</svg>