<svg xmlns="http://www.w3.org/2000/svg" viewBox="0 0 400 300" width="400" height="300">
  <rect width="400" height="300" fill="#f5f5f5"/>
  <path d="M80,180 C100,160 150,150 200,150 C250,150 300,160 320,180 L320,200 C300,220 250,230 200,230 C150,230 100,220 80,200 L80,180 Z" fill="#333"/>
  <path d="M80,180 C100,160 150,150 200,150 C250,150 300,160 320,180 L320,190 C300,170 250,160 200,160 C150,160 100,170 80,190 L80,180 Z" fill="#444"/>
  <path d="M240,170 L280,130 L290,140 L250,180 Z" fill="white"/>
  <text x="200" y="200" font-family="Arial" font-size="16" fill="white" text-anchor="middle">Nike Air Zoom Pegasus</text>
</svg>